<?xml version="1.0" encoding="UTF-8" standalone="no"?>
<!DOCTYPE svg PUBLIC "-//W3C//DTD SVG 1.1//EN"
 "http://www.w3.org/Graphics/SVG/1.1/DTD/svg11.dtd">
<!-- Generated by graphviz version 2.38.0 (20140413.2041)
 -->
<!-- Title: snakemake_dag Pages: 1 -->
<svg width="198pt" height="188pt"
 viewBox="0.00 0.00 198.39 188.00" xmlns="http://www.w3.org/2000/svg" xmlns:xlink="http://www.w3.org/1999/xlink">
<g id="graph0" class="graph" transform="scale(1 1) rotate(0) translate(4 184)">
<title>snakemake_dag</title>
<polygon fill="white" stroke="none" points="-4,4 -4,-184 194.388,-184 194.388,4 -4,4"/>
<!-- 0 -->
<g id="node1" class="node"><title>0</title>
<path fill="none" stroke="#d85656" stroke-width="2" stroke-dasharray="5,2" d="M110.194,-36C110.194,-36 80.194,-36 80.194,-36 74.194,-36 68.194,-30 68.194,-24 68.194,-24 68.194,-12 68.194,-12 68.194,-6 74.194,-0 80.194,-0 80.194,-0 110.194,-0 110.194,-0 116.194,-0 122.194,-6 122.194,-12 122.194,-12 122.194,-24 122.194,-24 122.194,-30 116.194,-36 110.194,-36"/>
<text text-anchor="middle" x="95.194" y="-15" font-family="sans" font-size="10.00">all</text>
</g>
<!-- 1 -->
<g id="node2" class="node"><title>1</title>
<path fill="none" stroke="#afd856" stroke-width="2" stroke-dasharray="5,2" d="M178.582,-180C178.582,-180 11.8056,-180 11.8056,-180 5.8056,-180 -0.194396,-174 -0.194396,-168 -0.194396,-168 -0.194396,-156 -0.194396,-156 -0.194396,-150 5.8056,-144 11.8056,-144 11.8056,-144 178.582,-144 178.582,-144 184.582,-144 190.582,-150 190.582,-156 190.582,-156 190.582,-168 190.582,-168 190.582,-174 184.582,-180 178.582,-180"/>
<text text-anchor="middle" x="95.194" y="-159" font-family="sans" font-size="10.00">generate_comparisons_for_nanostringnorm</text>
</g>
<!-- 1&#45;&gt;0 -->
<g id="edge1" class="edge"><title>1&#45;&gt;0</title>
<path fill="none" stroke="grey" stroke-width="2" d="M87.3011,-143.745C83.0868,-133.577 78.3368,-120.327 76.194,-108 73.4538,-92.2364 73.4538,-87.7636 76.194,-72 77.7174,-63.2364 80.5585,-54.0062 83.5881,-45.7484"/>
<polygon fill="grey" stroke="grey" stroke-width="2" points="86.9182,-46.8428 87.3011,-36.2548 80.3991,-44.2931 86.9182,-46.8428"/>
</g>
<!-- 2 -->
<g id="node3" class="node"><title>2</title>
<path fill="none" stroke="#56d8a9" stroke-width="2" stroke-dasharray="5,2" d="M170.847,-108C170.847,-108 97.5414,-108 97.5414,-108 91.5414,-108 85.5414,-102 85.5414,-96 85.5414,-96 85.5414,-84 85.5414,-84 85.5414,-78 91.5414,-72 97.5414,-72 97.5414,-72 170.847,-72 170.847,-72 176.847,-72 182.847,-78 182.847,-84 182.847,-84 182.847,-96 182.847,-96 182.847,-102 176.847,-108 170.847,-108"/>
<text text-anchor="middle" x="134.194" y="-87" font-family="sans" font-size="10.00">run_nanostringnorm</text>
</g>
<!-- 1&#45;&gt;2 -->
<g id="edge3" class="edge"><title>1&#45;&gt;2</title>
<path fill="none" stroke="grey" stroke-width="2" d="M104.834,-143.697C109.321,-135.644 114.753,-125.894 119.718,-116.982"/>
<polygon fill="grey" stroke="grey" stroke-width="2" points="122.855,-118.544 124.664,-108.104 116.74,-115.137 122.855,-118.544"/>
</g>
<!-- 2&#45;&gt;0 -->
<g id="edge2" class="edge"><title>2&#45;&gt;0</title>
<path fill="none" stroke="grey" stroke-width="2" d="M124.554,-71.6966C120.067,-63.6436 114.635,-53.8945 109.67,-44.9824"/>
<polygon fill="grey" stroke="grey" stroke-width="2" points="112.648,-43.1366 104.724,-36.1043 106.533,-46.5435 112.648,-43.1366"/>
</g>
</g>
</svg>
